# xmcd
#
# Track frame offsets: 
#        150
#        13897
#        27307
#        38120
#        48772
#        59497
#        72445
#        84552
#        95502
#        108602
#
# Disc length: 1633 seconds
#
# Revision: 1
# Processed by: cddbd v1.5.2PL0 Copyright (c) Steve Scherf et al.
# Submitted via: ExactAudioCopy v0.99pb5
#
DISCID=85065f0a
DTITLE=George Jones and Tammy Wynette - George Jones and Tammy Wynette Gre
DTITLE=atest Hits (EPIC)
DYEAR=1977
DGENRE=Country
TTITLE0=Golden Ring
TTITLE1=We're Gonna Hold On
TTITLE2=We Loved It Away
TTITLE3=Take Me 
TTITLE4=Near You
TTITLE5=Southern California
TTITLE6=God's Gonna Get'cha (For That)
TTITLE7=(We're Not) The Jet Set 
TTITLE8=Let's Build A World Together
TTITLE9=The Ceremony
EXTD=
EXTT0=
EXTT1=
EXTT2=
EXTT3=
EXTT4=
EXTT5=
EXTT6=
EXTT7=
EXTT8=
EXTT9=
PLAYORDER=
